<?xml version="1.0" ?><!DOCTYPE svg  PUBLIC '-//W3C//DTD SVG 1.1//EN'  'http://www.w3.org/Graphics/SVG/1.1/DTD/svg11.dtd'>

<svg enable-background="new 0 0 106 106" id="Layer_1" version="1.1" viewBox="0 0 106 106" xml:space="preserve" xmlns="http://www.w3.org/2000/svg" xmlns:xlink="http://www.w3.org/1999/xlink">

	<circle cx="53" cy="53" fill="#BE1E2D" r="50"/>
	<circle cx="53" cy="53" fill="#F1F2F2" r="45.7"/>

	<g><path d="M51.8,52.4c0,0.5,0.4,1,1,1c0.5,0,1-0.5,1-1V30.8c0-0.6-0.4-1-1-1c-0.5,0-1,0.4-1,1V52.4z" fill="#414042"/></g>
	<g><path d="M52.7,55.2c0.6,0,1-0.4,1-1c0-0.5-0.4-1-1-1H35.2c-0.5,0-1,0.4-1,1c0,0.5,0.5,1,1,1H52.7z" fill="#414042"/></g>
	<g>
		<g>
			<rect fill="#414042" height="1.6" width="5.9" x="11.6" y="52.2"/>
			<rect fill="#414042" height="1.6" width="5.9" x="88.5" y="52.2"/>
		</g>
		<g>
			<rect fill="#414042" height="5.9" width="1.6" x="52.2" y="88.5"/>
			<rect fill="#414042" height="5.9" width="1.6" x="52.2" y="11.6"/>
		</g>
		<g>
			<rect fill="#414042" height="5.9" transform="matrix(0.7071 0.7071 -0.7071 0.7071 64.2584 5.227)" width="1.6" x="25" y="77.2"/>
			<rect fill="#414042" height="5.9" transform="matrix(0.7071 0.7071 -0.7071 0.7071 41.7416 -49.1336)" width="1.6" x="79.4" y="22.9"/>
		</g>
		<g>
			<rect fill="#414042" height="1.6" transform="matrix(0.7071 0.7071 -0.7071 0.7071 80.1803 -33.2118)" width="5.9" x="77.2" y="79.4"/>
			<rect fill="#414042" height="1.6" transform="matrix(0.7071 0.7071 -0.7071 0.7071 25.8197 -10.6949)" width="5.9" x="22.9" y="25"/>
		</g>
	</g>

	<circle cx="52.8" cy="54.3" fill="#414042" r="3.1"/>
	<circle cx="52.8" cy="54.3" fill="#F1F2F2" r="2.4"/>
	<circle cx="52.8" cy="54.3" fill="#CF2257" r="1.8"/>
	
	<g>
		<path d="M53.8,54.2c-0.4-0.4-1-0.4-1.3-0.1s-0.3,0.9,0.1,1.3l17,17c0.4,0.4,1,0.4,1.3,0.1s0.3-0.9-0.1-1.3   L53.8,54.2z" fill="#CF2257"/>
	</g>

</svg>